<svg width="6" height="4" viewBox="0 0 6 4" fill="none" xmlns="http://www.w3.org/2000/svg">
<path d="M5.83164 0.165511C5.725 0.0595023 5.58074 0 5.43037 0C5.28 0 5.13575 0.0595023 5.0291 0.165511L2.98577 2.18039L0.970895 0.165511C0.864254 0.0595023 0.719996 0 0.569628 0C0.41926 0 0.275002 0.0595023 0.168361 0.165511C0.115013 0.218424 0.0726695 0.281375 0.0437733 0.350734C0.0148771 0.420093 0 0.494487 0 0.569625C0 0.644762 0.0148771 0.719157 0.0437733 0.788516C0.0726695 0.857875 0.115013 0.920826 0.168361 0.973738L2.58166 3.38703C2.63457 3.44038 2.69752 3.48273 2.76688 3.51162C2.83624 3.54052 2.91063 3.5554 2.98577 3.5554C3.06091 3.5554 3.1353 3.54052 3.20466 3.51162C3.27402 3.48273 3.33697 3.44038 3.38988 3.38703L5.83164 0.973738C5.88499 0.920826 5.92733 0.857875 5.95623 0.788516C5.98512 0.719157 6 0.644762 6 0.569625C6 0.494487 5.98512 0.420093 5.95623 0.350734C5.92733 0.281375 5.88499 0.218424 5.83164 0.165511Z" fill="#3F69FF"/>
</svg>
